<?xml version="1.0"?>
<svg xmlns="http://www.w3.org/2000/svg" xmlns:xlink="http://www.w3.org/1999/xlink" version="1.1" id="Capa_1" x="0px" y="0px" width="512px" height="512px" viewBox="0 0 49.999 49.999" style="enable-background:new 0 0 49.999 49.999;" xml:space="preserve" class="hovered-paths"><g><g>
	<path d="M49.999,22.671c0-2.088-0.76-3.711-1.898-4.313c-0.11-0.174-0.265-0.323-0.455-0.42L22.596,5.058   c-0.336-0.177-0.742-0.177-1.08,0L0.643,15.792C0.247,15.993,0,16.397,0,16.842c0,0.441,0.246,0.849,0.642,1.049l0.739,0.381   c0.259,0.494,0.466,1.224,0.466,2.148c0,1.061-0.27,1.853-0.578,2.328c-0.459-0.034-0.913,0.203-1.138,0.639   c-0.299,0.578-0.07,1.291,0.511,1.589l0.739,0.381c0.259,0.494,0.466,1.223,0.466,2.15c0,1.057-0.27,1.851-0.578,2.325   c-0.459-0.033-0.913,0.204-1.138,0.64c-0.299,0.58-0.07,1.291,0.511,1.589l25.048,12.88c0.168,0.089,0.354,0.133,0.538,0.133   c0.187,0,0.374-0.044,0.542-0.133L47.5,34.281c1.466-0.281,2.499-2.084,2.499-4.522c0-1.483-0.39-2.726-1.017-3.544   C49.609,25.396,49.999,24.155,49.999,22.671z M22.058,11.417l14.72,7.569l-10.548,5.425l-14.72-7.569L22.058,11.417z    M47.104,31.977c-0.016,0-0.031,0.01-0.044,0.01c-0.072,0.003-0.145,0.024-0.214,0.044c-0.084,0.02-0.168,0.031-0.242,0.066   c-0.015,0.007-0.028,0.005-0.038,0.012L26.229,42.564L2.392,30.31c0.398-0.711,0.639-1.688,0.639-2.802   c0-0.491-0.055-0.948-0.14-1.375l22.8,11.724c0.168,0.089,0.354,0.13,0.538,0.13c0.187,0,0.374-0.041,0.542-0.13l20.14-10.355   c0.028,0.002,0.053,0.015,0.084,0.015c0.188,0.11,0.646,0.917,0.646,2.243C47.64,31.084,47.184,31.889,47.104,31.977z    M47.104,24.892c-0.014,0-0.027,0.006-0.041,0.01c-0.075,0.002-0.147,0.026-0.225,0.043c-0.081,0.021-0.16,0.032-0.234,0.067   c-0.015,0.007-0.028,0.003-0.038,0.012L26.229,35.479L2.392,23.224c0.398-0.71,0.639-1.688,0.639-2.803   c0-0.49-0.055-0.946-0.14-1.375l22.8,11.726c0.168,0.088,0.354,0.132,0.538,0.132c0.187,0,0.374-0.044,0.542-0.132l20.14-10.358   c0.028,0.002,0.053,0.017,0.084,0.017c0.188,0.112,0.646,0.916,0.646,2.241C47.64,23.999,47.184,24.804,47.104,24.892z" data-original="#000000" class="active-path" data-old_color="#000000" fill="#F2F2F2"/>
</g></g> </svg>
