<?xml version="1.0"?>
<svg xmlns="http://www.w3.org/2000/svg" xmlns:xlink="http://www.w3.org/1999/xlink" version="1.1" id="Layer_1" x="0px" y="0px" viewBox="0 0 495.996 495.996" style="enable-background:new 0 0 495.996 495.996;" xml:space="preserve" width="512px" height="512px"><g><g>
	<g>
		<path d="M263.492,311h-31.02c-0.552,0-1-0.447-1-1s0.448-1,1-1h31.02c0.553,0,1,0.447,1,1S264.045,311,263.492,311z" data-original="#000000" class="active-path" data-old_color="#000000" fill="#FFFFFF"/>
	</g>
</g><g>
	<g>
		<path d="M480.5,15.5h-69.896c0.08-3.876,0.144-7.728,0.144-11.624c0-2.14-1.736-3.876-3.876-3.876H89.124    c-2.14,0-3.876,1.736-3.876,3.876c0,3.9,0.072,7.752,0.136,11.624H15.5C6.944,15.5,0,22.404,0,30.936    c0,104.204,64.18,198.36,159.996,235.42c20.136,24.644,45.372,41.048,68.62,46.684v82.084c0,34.192-27.812,62-62,62    c-2.14,0-3.876,1.74-3.876,3.876v31c0,2.148,1.744,3.996,3.884,3.996h162.752c2.14,0,3.868-1.848,3.868-3.996v-31    c0-2.136-1.736-3.876-3.876-3.876c-34.188,0-62-27.808-62-62v-82.08c27.124-5.636,48.5-22.072,68.636-46.7    c95.816-37.072,159.992-131.22,159.992-235.408C495.996,22.404,489.044,15.5,480.5,15.5z M31.524,46.5H86.76    c4.548,65.876,19.296,122.708,41.196,168.392C71.756,176.88,36.208,116.248,31.524,46.5z M304.624,152.156l-18.924,18.54    l4.564,26.112c1.144,6.612-0.668,10.424-2.384,12.472c-3.468,4.116-9.72,4.676-16.348,1.212l-23.492-12.26l-23.416,12.396    c-2.972,1.592-5.812,2.38-8.432,2.38c-3.208,0-6.032-1.244-7.952-3.512c-1.72-2.044-3.532-5.86-2.42-12.44l4.408-26.128    l-18.876-18.98c-0.056-0.044-0.788-0.816-0.84-0.816h-0.008c-0.008,0,0.332,0.664,0.324,0.648l0.128,0.304    c-0.052-0.048-0.028,0.064-0.076,0.016l-0.416-0.372c-0.12-0.12-0.22-0.204-0.324-0.34c-5.216-5.692-4.688-10.428-3.892-12.804    c0.84-2.524,3.536-6.924,12.048-8.192l26.204-3.884l11.664-23.784c3.836-7.828,8.92-8.992,11.608-8.992    c2.68,0,7.744,1.164,11.6,8.916l11.792,23.736l26.232,3.744c8.596,1.212,11.284,5.672,12.124,8.22    C310.348,140.892,310.824,146.072,304.624,152.156z M368.06,214.884C389.948,169.2,404.696,112.376,409.244,46.5h55.228    C459.784,116.248,424.244,176.876,368.06,214.884z" data-original="#000000" class="active-path" data-old_color="#000000" fill="#FFFFFF"/>
	</g>
</g></g> </svg>
