<?xml version="1.0"?>
<svg xmlns="http://www.w3.org/2000/svg" xmlns:xlink="http://www.w3.org/1999/xlink" version="1.1" id="Layer_1" x="0px" y="0px" viewBox="0 0 500 500" style="enable-background:new 0 0 500 500;" xml:space="preserve" width="512px" height="512px"><g><g>
	<g>
		<path d="M421.918,66.108h-74.24c-2.208,0-4,1.792-4,4c0,2.208,1.792,4,4,4h70.236v390.54H85.986V74.108h66.332    c2.208,0,4-1.792,4-4c0-2.208-1.792-4-4-4H81.986c-2.208,0-4,1.792-4,4v398.54c0,2.208,1.792,4,4,4h339.928    c2.212,0,4-1.792,4.004-4V70.108C425.918,67.9,424.126,66.108,421.918,66.108z" data-original="#000000" class="active-path" data-old_color="#000000" fill="#FFFFFF"/>
	</g>
</g><g>
	<g>
		<path d="M427.73,46.576h-80.052c-2.208,0-4,1.792-4,4s1.792,4,4,4h80.052c14.456,0,25.356,11.692,25.356,27.192v382.26    c0,15.684-11.136,27.972-25.356,27.972H76.078c-15.264,0-29.164-13.332-29.164-27.972V81.768    c0-14.484,13.628-27.192,29.164-27.192h76.24c2.208,0,4-1.792,4-4s-1.792-4-4-4h-76.24c-19.8,0-37.164,16.444-37.164,35.192    v382.26c0,19.164,17.368,35.972,37.164,35.972H427.73c18.7,0,33.352-15.8,33.356-35.972V81.768    C461.086,61.704,446.746,46.576,427.73,46.576z" data-original="#000000" class="active-path" data-old_color="#000000" fill="#FFFFFF"/>
	</g>
</g><g>
	<g>
		<path d="M251.902,15.08c-8.672,0-15.724,7.052-15.724,15.72c0,8.672,7.056,15.724,15.724,15.724c8.668,0,15.72-7.052,15.72-15.724    C267.622,22.132,260.57,15.08,251.902,15.08z M251.902,38.524c-4.26,0-7.724-3.468-7.724-7.724s3.468-7.72,7.724-7.72    c4.26,0,7.72,3.46,7.72,7.72S256.162,38.524,251.902,38.524z" data-original="#000000" class="active-path" data-old_color="#000000" fill="#FFFFFF"/>
	</g>
</g><g>
	<g>
		<path d="M318.01,19.224h-37.256C276.102,7.448,265.078,0,251.902,0c-13.18,0-24.2,7.452-28.856,19.224h-37.728    c-20.056,0-37,15.968-37,34.868V85.74c0,2.208,1.792,4,4,4h195.36c2.208,0,4-1.792,3.996-4V54.092    C351.674,34.216,337.202,19.224,318.01,19.224z M156.318,81.74V54.092c0-14.312,13.552-26.868,29-26.868h40.584    c1.776,0,3.34-1.176,3.84-2.884C232.63,14.416,241.326,8,251.902,8c10.576,0,19.272,6.416,22.16,16.34    c0.496,1.708,2.06,2.884,3.84,2.884h40.112c14.632,0,25.664,11.548,25.664,26.868V81.74H156.318z" data-original="#000000" class="active-path" data-old_color="#000000" fill="#FFFFFF"/>
	</g>
</g><g>
	<g>
		<path d="M382.846,187.236h-160.2c-2.208,0-4,1.792-4,4c0,2.208,1.792,4,4,4h160.2c2.208,0,4-1.792,4-4    C386.846,189.028,385.054,187.236,382.846,187.236z" data-original="#000000" class="active-path" data-old_color="#000000" fill="#FFFFFF"/>
	</g>
</g><g>
	<g>
		<path d="M269.534,249.752h-46.888c-2.208,0-4,1.792-4,4c0,2.208,1.792,4,4,4h46.888c2.208,0,4-1.792,4-4    S271.742,249.752,269.534,249.752z" data-original="#000000" class="active-path" data-old_color="#000000" fill="#FFFFFF"/>
	</g>
</g><g>
	<g>
		<path d="M382.846,249.752h-78.144c-2.208,0-4,1.792-4,4c0,2.208,1.792,4,4,4h78.144c2.208,0,4-1.792,4-4    S385.054,249.752,382.846,249.752z" data-original="#000000" class="active-path" data-old_color="#000000" fill="#FFFFFF"/>
	</g>
</g><g>
	<g>
		<path d="M382.846,374.784h-46.888c-2.208,0-4,1.792-4,4s1.792,4,4,4h46.888c2.208,0,4-1.792,4-4S385.054,374.784,382.846,374.784z    " data-original="#000000" class="active-path" data-old_color="#000000" fill="#FFFFFF"/>
	</g>
</g><g>
	<g>
		<path d="M300.79,374.784h-78.144c-2.208,0-4,1.792-4,4s1.792,4,4,4h78.144c2.208,0,4-1.792,4-4S302.998,374.784,300.79,374.784z" data-original="#000000" class="active-path" data-old_color="#000000" fill="#FFFFFF"/>
	</g>
</g><g>
	<g>
		<path d="M382.846,312.268h-160.2c-2.208,0-4,1.792-4,4s1.792,4,4,4h160.2c2.208,0,4-1.792,4-4S385.054,312.268,382.846,312.268z" data-original="#000000" class="active-path" data-old_color="#000000" fill="#FFFFFF"/>
	</g>
</g><g>
	<g>
		<path d="M191.938,164.404c-1.564-1.564-4.092-1.564-5.656,0l-32.528,32.528l-16.488-16.488c-1.564-1.564-4.092-1.564-5.656,0    c-1.564,1.564-1.564,4.092,0,5.656l19.316,19.316c0.78,0.78,1.804,1.172,2.828,1.172c1.024,0,2.048-0.392,2.828-1.172    l35.356-35.356C193.502,168.496,193.502,165.968,191.938,164.404z" data-original="#000000" class="active-path" data-old_color="#000000" fill="#FFFFFF"/>
	</g>
</g><g>
	<g>
		<path d="M191.938,226.704c-1.564-1.564-4.092-1.564-5.656,0l-32.528,32.528l-16.488-16.488c-1.564-1.564-4.092-1.564-5.656,0    c-1.564,1.564-1.564,4.092,0,5.656l19.316,19.316c0.78,0.78,1.804,1.172,2.828,1.172c1.024,0,2.048-0.388,2.828-1.172    l35.356-35.356C193.502,230.796,193.502,228.268,191.938,226.704z" data-original="#000000" class="active-path" data-old_color="#000000" fill="#FFFFFF"/>
	</g>
</g><g>
	<g>
		<path d="M191.938,289.148c-1.564-1.564-4.092-1.564-5.656,0l-32.528,32.528l-16.488-16.488c-1.564-1.564-4.092-1.564-5.656,0    c-1.564,1.564-1.564,4.092,0,5.656l19.316,19.316c0.78,0.78,1.804,1.172,2.828,1.172c1.024,0,2.048-0.392,2.828-1.172    l35.356-35.356C193.502,293.24,193.502,290.712,191.938,289.148z" data-original="#000000" class="active-path" data-old_color="#000000" fill="#FFFFFF"/>
	</g>
</g><g>
	<g>
		<path d="M191.938,351.724c-1.564-1.564-4.092-1.564-5.656,0l-32.528,32.528l-16.488-16.488c-1.564-1.564-4.092-1.564-5.656,0    c-1.564,1.564-1.564,4.092,0,5.656l19.316,19.316c0.78,0.78,1.804,1.172,2.828,1.172c1.024,0,2.048-0.392,2.828-1.172    l35.356-35.356C193.502,355.816,193.502,353.288,191.938,351.724z" data-original="#000000" class="active-path" data-old_color="#000000" fill="#FFFFFF"/>
	</g>
</g></g> </svg>
