<?xml version="1.0"?>
<svg xmlns="http://www.w3.org/2000/svg" xmlns:xlink="http://www.w3.org/1999/xlink" version="1.1" id="Capa_1" x="0px" y="0px" viewBox="0 0 362.346 362.346" style="enable-background:new 0 0 362.346 362.346;" xml:space="preserve" width="512px" height="512px" class=""><g><g>
	<path d="M320.736,298.694V0H55.483v234.151c-8.564,8.524-13.874,20.314-13.874,33.323c0,12.443,4.865,23.765,12.783,32.186v48.123   c0,5.98,3.586,11.281,9.137,13.506c1.773,0.711,3.617,1.056,5.442,1.056c3.887,0,7.683-1.568,10.494-4.511l7.14-7.474   c0.726-0.76,1.592-0.874,2.043-0.874s1.317,0.114,2.043,0.874l7.14,7.475c4.131,4.323,10.387,5.679,15.937,3.454   c5.55-2.225,9.137-7.527,9.137-13.506V299.66c0.299-0.318,0.596-0.639,0.887-0.965H320.736z M70.483,15h235.253v268.694H132.803   c1.481-4.018,2.414-8.295,2.742-12.738h158.264V27.738H82.411v193.122c-4.171,0.555-8.174,1.648-11.928,3.226V15z M56.609,267.474   c0-17.667,14.373-32.039,32.039-32.039c17.667,0,32.039,14.373,32.039,32.039c0,17.666-14.373,32.039-32.039,32.039   C70.982,299.512,56.609,285.14,56.609,267.474z M97.411,221.266V42.738h181.398v213.218H134.256   C129.807,238.349,115.405,224.671,97.411,221.266z M101.537,339.999c-3.346-3.502-8.044-5.512-12.889-5.512   s-9.542,2.009-12.889,5.512l-6.367,6.665v-36.291c5.882,2.651,12.397,4.139,19.256,4.139c6.859,0,13.374-1.488,19.256-4.139v36.291   L101.537,339.999z" data-original="#000000" class="active-path" data-old_color="#000000" fill="#FFFFFF"/>
	<rect x="114.878" y="60.872" width="140.615" height="15" data-original="#000000" class="active-path" data-old_color="#000000" fill="#FFFFFF"/>
	<rect x="114.878" y="88.881" width="140.615" height="15" data-original="#000000" class="active-path" data-old_color="#000000" fill="#FFFFFF"/>
	<rect x="114.878" y="116.891" width="140.615" height="15" data-original="#000000" class="active-path" data-old_color="#000000" fill="#FFFFFF"/>
	<rect x="114.878" y="174.872" width="70" height="15" data-original="#000000" class="active-path" data-old_color="#000000" fill="#FFFFFF"/>
</g></g> </svg>
