<?xml version="1.0"?>
<svg xmlns="http://www.w3.org/2000/svg" xmlns:xlink="http://www.w3.org/1999/xlink" version="1.1" id="Capa_1" x="0px" y="0px" viewBox="0 0 49.138 49.138" style="enable-background:new 0 0 49.138 49.138;" xml:space="preserve" width="512px" height="512px" class=""><g><g>
	<g>
		<g>
			<path d="M34.76,29.444c0.048-0.049,0.101-0.086,0.147-0.133c1.564-1.564,2.174-3.708,1.866-5.741     c0.333-0.784,0.587-1.605,0.782-2.452c1.22-1.215,1.975-2.893,1.975-4.748c0-2.494-1.378-4.646-3.396-5.799     c-0.115-0.212-0.248-0.41-0.375-0.614c0.003-1.716-0.652-3.434-1.961-4.744c-1.233-1.231-2.827-1.86-4.438-1.934     C28.186,1.323,26.069,0,23.623,0c-2.453,0-4.582,1.336-5.748,3.306c-2.341-0.799-5.033-0.289-6.901,1.579     C9.185,6.676,8.65,9.217,9.305,11.489c-0.056,0.126-0.124,0.248-0.183,0.378c-1.67,1.219-2.769,3.178-2.769,5.404     c0,1.997,0.892,3.771,2.276,4.998c0.142,0.442,0.298,0.877,0.479,1.301c-0.307,2.032,0.301,4.176,1.866,5.741     c0.425,0.424,0.894,0.77,1.39,1.051l-4.57,11.373l6.533-1.217l2.795,4.967l4.611-11.478c0.499,0.119,1.012,0.188,1.543,0.188     c0.844,0,1.645-0.165,2.384-0.453l8.269,15.396l2.807-6.021l6.048,1.268L34.76,29.444z M22.941,29.662     c-6.74,0-12.201-5.466-12.201-12.204c0-6.739,5.461-12.204,12.201-12.204c6.742,0,12.203,5.465,12.203,12.204     C35.144,24.196,29.683,29.662,22.941,29.662z" data-original="#010002" class="active-path" data-old_color="#010002" fill="#FFFFFF"/>
		</g>
	</g>
</g></g> </svg>
