<?xml version="1.0"?>
<svg xmlns="http://www.w3.org/2000/svg" viewBox="0 -36 512 512" width="512px" height="512px"><g><path d="m472 180v-100c0-22.054688-17.945312-40-40-40h-352c-22.054688 0-40 17.945312-40 40v200c0 22.054688 17.945312 40 40 40h352c22.054688 0 40-17.945312 40-40 0-11.046875 8.953125-20 20-20s20 8.953125 20 20c0 44.113281-35.886719 80-80 80h-156v39.878906h70c11.046875 0 20 8.953125 20 20s-8.953125 20-20 20h-180c-11.046875 0-20-8.953125-20-20s8.953125-20 20-20h70v-39.878906h-156c-44.113281 0-80-35.886719-80-80v-200c0-44.113281 35.886719-80 80-80h352c44.113281 0 80 35.886719 80 80v100c0 11.046875-8.953125 20-20 20s-20-8.953125-20-20zm-122-24c-7.929688 0-15.105469 4.683594-18.304688 11.9375l-17.808593 40.429688-46.316407-115.792969c-2.960937-7.398438-10.023437-12.332031-17.988281-12.5625-7.964843-.226563-15.304687 4.28125-18.6875 11.492187l-44.679687 95.21875-11.871094-20.679687c-3.566406-6.210938-10.179688-10.042969-17.34375-10.042969h-57c-11.046875 0-20 8.953125-20 20s8.953125 20 20 20h45.421875l25.234375 43.957031c3.710938 6.46875 10.726562 10.308594 18.167969 10.027344 7.453125-.308594 14.113281-4.734375 17.28125-11.488281l41.433593-88.296875 46.890626 117.230469c2.992187 7.476562 10.175781 12.429687 18.226562 12.566406.117188.003906.230469.003906.347656.003906 7.914063 0 15.101563-4.675781 18.300782-11.9375l31.742187-72.0625h48.953125c11.046875 0 20-8.953125 20-20s-8.953125-20-20-20zm0 0" data-original="#000000" class="active-path" data-old_color="#000000" fill="#FFFFFF"/></g> </svg>
