<?xml version="1.0"?>
<svg xmlns="http://www.w3.org/2000/svg" xmlns:xlink="http://www.w3.org/1999/xlink" version="1.1" id="Capa_1" x="0px" y="0px" viewBox="0 0 512.001 512.001" style="enable-background:new 0 0 512.001 512.001;" xml:space="preserve" width="512px" height="512px" class=""><g><g>
	<g>
		<g>
			<path d="M501.333,245.333H271.786c-2.828,0-5.12-2.292-5.12-5.12V10.667C266.666,4.776,261.89,0,255.999,0     c-70.961,0.117-138.714,29.573-187.2,81.387c-96.438,103.39-90.803,265.382,12.587,361.82     c42.828,39.949,98.06,64.004,156.48,68.154c6.116,0.427,12.16,0.64,18.133,0.64c64.788,0.191,127.192-24.427,174.4-68.8     c51.892-48.448,81.428-116.207,81.6-187.2C511.999,250.109,507.224,245.333,501.333,245.333z M415.999,427.627     c-47.527,44.726-111.668,67.409-176.747,62.507C109.874,482.511,11.172,371.449,18.794,242.071     C25.927,121.01,124.127,25.324,245.333,21.333v218.88c-0.166,1.703-0.166,3.417,0,5.12h-32v21.333h49.92L443.519,396.8     C435.277,407.87,426.067,418.186,415.999,427.627z M455.466,379.2h-0.107L299.626,266.667h191.04     C488.669,306.556,476.556,345.282,455.466,379.2z" data-original="#000000" class="active-path" data-old_color="#000000" fill="#FFFFFF"/>
			<path d="M324.053,213.333h177.28c5.891,0,10.667-4.776,10.667-10.667C511.999,90.737,421.262,0,309.333,0     c-5.891,0-10.667,4.776-10.667,10.667v177.28C298.725,201.943,310.056,213.275,324.053,213.333z M319.999,21.333     C411.985,26.602,485.397,100.014,490.666,192H324.053c-2.215-0.056-3.997-1.838-4.053-4.053V21.333z" data-original="#000000" class="active-path" data-old_color="#000000" fill="#FFFFFF"/>
			<rect x="170.666" y="245.333" width="21.333" height="21.333" data-original="#000000" class="active-path" data-old_color="#000000" fill="#FFFFFF"/>
		</g>
	</g>
</g></g> </svg>
