<?xml version="1.0"?>
<svg xmlns="http://www.w3.org/2000/svg" height="512px" viewBox="0 0 128 128" width="512px" class=""><g><g><path d="m90.206 35.25h-10.289v-2.65a1.749 1.749 0 0 0 -1.75-1.75h-5.423a8.917 8.917 0 0 0 -17.488 0h-5.423a1.749 1.749 0 0 0 -1.75 1.75v2.65h-10.289a1.749 1.749 0 0 0 -1.75 1.75v65.568a1.749 1.749 0 0 0 1.75 1.75h52.412a1.749 1.749 0 0 0 1.75-1.75v-65.568a1.749 1.749 0 0 0 -1.75-1.75zm-38.623-.9h5.25a1.75 1.75 0 0 0 1.75-1.75 5.417 5.417 0 0 1 10.834 0 1.75 1.75 0 0 0 1.75 1.75h5.25v7.025h-24.834zm36.873 66.469h-48.912v-62.069h8.539v4.374a1.749 1.749 0 0 0 1.75 1.75h28.334a1.749 1.749 0 0 0 1.75-1.75v-4.374h8.539z" data-original="#000000" class="active-path" data-old_color="#000000" fill="#FFFFFF"/><path d="m53.083 67.671h-6.5a1.749 1.749 0 0 0 -1.75 1.75v6.5a1.749 1.749 0 0 0 1.75 1.75h6.5a1.749 1.749 0 0 0 1.75-1.75v-6.5a1.749 1.749 0 0 0 -1.75-1.75zm-1.75 6.5h-3v-3h3z" data-original="#000000" class="active-path" data-old_color="#000000" fill="#FFFFFF"/><path d="m53.083 82.426h-6.5a1.749 1.749 0 0 0 -1.75 1.75v6.5a1.749 1.749 0 0 0 1.75 1.75h6.5a1.749 1.749 0 0 0 1.75-1.75v-6.5a1.749 1.749 0 0 0 -1.75-1.75zm-1.75 6.5h-3v-3h3z" data-original="#000000" class="active-path" data-old_color="#000000" fill="#FFFFFF"/><path d="m60.25 56.167a1.75 1.75 0 0 0 0 3.5h19.875a1.75 1.75 0 0 0 0-3.5z" data-original="#000000" class="active-path" data-old_color="#000000" fill="#FFFFFF"/><path d="m80.125 70.921h-19.875a1.75 1.75 0 1 0 0 3.5h19.875a1.75 1.75 0 0 0 0-3.5z" data-original="#000000" class="active-path" data-old_color="#000000" fill="#FFFFFF"/><path d="m80.125 85.676h-19.875a1.75 1.75 0 1 0 0 3.5h19.875a1.75 1.75 0 0 0 0-3.5z" data-original="#000000" class="active-path" data-old_color="#000000" fill="#FFFFFF"/><path d="m48.062 60.469a1.749 1.749 0 0 0 2.468-.178l3.876-4.478a1.75 1.75 0 1 0 -2.646-2.292l-2.731 3.156-1.3-1.125a1.75 1.75 0 0 0 -2.292 2.648z" data-original="#000000" class="active-path" data-old_color="#000000" fill="#FFFFFF"/><path d="m64 35.528a3.042 3.042 0 1 0 -3.042-3.041 3.044 3.044 0 0 0 3.042 3.041zm0-3.5a.459.459 0 1 1 -.458.459.459.459 0 0 1 .458-.459z" data-original="#000000" class="active-path" data-old_color="#000000" fill="#FFFFFF"/></g></g> </svg>
