<svg xmlns="http://www.w3.org/2000/svg" width="30" height="30" viewBox="0 0 30 30">
  <defs>
    <style>
      .cls-1 {
        fill: #fd2744;
        fill-rule: evenodd;
      }
    </style>
  </defs>
  <path id="Фигура_1" data-name="Фигура 1" class="cls-1" d="M1058.6,39.392A15,15,0,1,0,1063,50,15,15,0,0,0,1058.6,39.392Zm-2.88,16.5s0,0-.01,0v0l-0.76.755a3.989,3.989,0,0,1-3.77,1.08,13.35,13.35,0,0,1-3.86-1.73,18.318,18.318,0,0,1-5.32-5.215,13.979,13.979,0,0,1-1.71-3.46,3.994,3.994,0,0,1,1-4.085l0.89-.89a0.637,0.637,0,0,1,.9,0v0l2.81,2.81a0.631,0.631,0,0,1,0,.9v0l-1.65,1.65a1.353,1.353,0,0,0-.14,1.75,20.325,20.325,0,0,0,1.97,2.3,19.774,19.774,0,0,0,2.6,2.185,1.354,1.354,0,0,0,1.73-.15l1.6-1.62a0.637,0.637,0,0,1,.9,0v0l2.81,2.82A0.64,0.64,0,0,1,1055.72,55.895Z" transform="translate(-1033 -35)"/>
</svg>
