<?xml version="1.0" encoding="utf-8"?>
<!-- Generator: Adobe Illustrator 17.0.1, SVG Export Plug-In . SVG Version: 6.00 Build 0)  -->
<!DOCTYPE svg PUBLIC "-//W3C//DTD SVG 1.1//EN" "http://www.w3.org/Graphics/SVG/1.1/DTD/svg11.dtd">
<svg version="1.1" id="Слой_1" xmlns="http://www.w3.org/2000/svg" xmlns:xlink="http://www.w3.org/1999/xlink" x="0px" y="0px"
	 width="723.836px" height="86.16px" viewBox="0 0 723.836 86.16" enable-background="new 0 0 723.836 86.16" xml:space="preserve">
<g>
	<path fill="#F26C4F" d="M65.52,40.68L32.16,63.961c0.879,0.641,1.8,1.1,2.76,1.379c0.96,0.281,2.2,0.42,3.72,0.42
		c3.12,0,6.199-0.72,9.24-2.16c2.08-0.959,4.08-2.279,6-3.959L64.2,77.28c-4.641,3.36-9.561,5.76-14.76,7.2
		c-4.001,1.119-8.081,1.68-12.24,1.68c-11.681,0-20.961-3.399-27.84-10.2C3.12,69.801,0,62.24,0,53.28c0-8.959,3.12-16.6,9.36-22.92
		c6.559-6.64,14.88-9.96,24.96-9.96c6.639,0,12.739,1.701,18.3,5.1C58.18,28.901,62.479,33.96,65.52,40.68z M41.16,41.88
		c-0.96-1.039-2-1.8-3.12-2.28c-1.121-0.48-2.4-0.72-3.84-0.72c-2.88,0-5.34,0.941-7.38,2.82c-2.04,1.881-3.06,4.62-3.06,8.22
		c0,1.361,0.279,2.521,0.84,3.48L41.16,41.88z"/>
	<path fill="#5674B9" d="M127.8,60l-5.52,24.24H73.32V1.92L99.359,0v60H127.8z"/>
	<path fill="#5674B9" d="M160.799,84.24l-26.04,1.92V1.92L160.799,0V84.24z"/>
	<path fill="#5674B9" d="M238.558,60.961c0,6.881-2.52,12.479-7.56,16.799c-5.04,4.32-11.562,6.48-19.56,6.48h-37.44V1.92h33.84
		c9.279,0,16.44,2.24,21.48,6.72c4.399,3.921,6.6,8.921,6.6,15c0,3.84-0.881,7.26-2.64,10.26c-1.761,3-4.401,5.34-7.92,7.02
		c4.479,1.841,7.878,4.68,10.2,8.52C237.557,52.801,238.558,56.641,238.558,60.961z M209.878,27c0-1.92-0.66-3.459-1.98-4.62
		c-1.32-1.159-3.06-1.74-5.22-1.74h-2.64v12.84h3.12c2.08,0,3.72-0.64,4.92-1.92C209.278,30.281,209.878,28.761,209.878,27z
		 M211.438,57.84c0-2.079-0.681-3.799-2.04-5.16c-1.361-1.359-3.401-2.039-6.12-2.039h-3.24V65.04h3.24c3.04,0,5.239-0.88,6.6-2.64
		C210.917,61.041,211.438,59.52,211.438,57.84z"/>
	<path fill="#5674B9" d="M316.678,83.15l-28.68,3.01l-14.04-36.12h-0.48v34.2l-26.04,1.92V1.92h28.44c10.08,0,18,1.28,23.76,3.84
		c9.279,4.161,13.92,11.561,13.92,22.2c0,4.641-1.14,8.78-3.42,12.42c-2.28,3.641-5.541,6.341-9.78,8.1L316.678,83.15z
		 M286.198,34.68c0-2.88-0.92-5.239-2.76-7.08c-1.841-1.839-4.161-2.76-6.96-2.76h-3v19.8h3.48c2.719,0,4.939-0.979,6.66-2.94
		C285.337,39.741,286.198,37.401,286.198,34.68z"/>
	<path fill="#5674B9" d="M402.118,84.24l-28.201,1.92l-4.08-14.279h-22.56l-4.2,14.279l-27.24-1.92l27.12-82.32h31.44L402.118,84.24
		z M364.917,51.36l-6.359-25.92l-6.72,25.92H364.917z"/>
	<path fill="#5674B9" d="M474.478,83.15l-28.681,3.01l-14.04-36.12h-0.479v34.2l-26.04,1.92V1.92h28.439
		c10.08,0,18,1.28,23.761,3.84c9.279,4.161,13.92,11.561,13.92,22.2c0,4.641-1.141,8.78-3.42,12.42
		c-2.28,3.641-5.541,6.341-9.78,8.1L474.478,83.15z M443.997,34.68c0-2.88-0.921-5.239-2.76-7.08c-1.842-1.839-4.161-2.76-6.96-2.76
		h-3v19.8h3.479c2.719,0,4.939-0.979,6.66-2.94C443.137,39.741,443.997,37.401,443.997,34.68z"/>
	<path fill="#5674B9" d="M546.716,2.4l-32.04,83.729l-28.56-2.878l12-25.912L472.796,2.4l28.44-2.4l9.84,27.6l8.76-27.6L546.716,2.4
		z"/>
	<path fill="#555555" d="M575.756,70.53l-15.601,15.6l-15.6-15.6l15.6-15.601L575.756,70.53z"/>
	<path fill="#555555" d="M652.316,83.15l-28.681,3.01l-14.04-36.12h-0.479v34.2l-26.04,1.92V1.92h28.439
		c10.08,0,18,1.28,23.761,3.84c9.279,4.161,13.92,11.561,13.92,22.2c0,4.641-1.141,8.78-3.42,12.42
		c-2.28,3.641-5.541,6.341-9.78,8.1L652.316,83.15z M621.836,34.68c0-2.88-0.921-5.239-2.76-7.08c-1.842-1.839-4.161-2.76-6.96-2.76
		h-3v19.8h3.479c2.719,0,4.939-0.979,6.66-2.94C620.976,39.741,621.836,37.401,621.836,34.68z"/>
	<path fill="#555555" d="M723.836,57.6c0,9.521-3.201,16.762-9.601,21.721c-5.84,4.56-13.8,6.84-23.88,6.84
		c-8.801,0-15.92-2.439-21.359-7.32c-5.441-4.879-8.16-11.879-8.16-21V1.92L686.876,0v55.92c0,2.4,0.459,4.121,1.38,5.16
		c0.919,1.041,2.379,1.561,4.38,1.561c2.079,0,3.52-0.76,4.32-2.28c0.559-1.039,0.84-2.521,0.84-4.44v-54L723.836,0V57.6z"/>
</g>
</svg>
