<?xml version="1.0" encoding="iso-8859-1"?>
<!-- Generator: Adobe Illustrator 16.0.0, SVG Export Plug-In . SVG Version: 6.00 Build 0)  -->
<!DOCTYPE svg PUBLIC "-//W3C//DTD SVG 1.1//EN" "http://www.w3.org/Graphics/SVG/1.1/DTD/svg11.dtd">
<svg version="1.1" id="Capa_1" xmlns="http://www.w3.org/2000/svg" xmlns:xlink="http://www.w3.org/1999/xlink" x="0px" y="0px"
	 width="32.05px" height="32.05px" viewBox="0 0 32.05 32.05" style="enable-background:new 0 0 32.05 32.05;" xml:space="preserve"
	>
<g>
	<g>
		<path d="M18.027,29.178L3.489,17.044c0,0-0.769,0.28-0.769,1.315s0.322,1.248,0.322,1.248L18.027,32.05
			c0,0-0.431-0.883-0.431-1.53S18.027,29.178,18.027,29.178z"/>
		<path d="M18.094,31.598c0,0.288,0.269,0.34,0.39,0.315s9.686-6.354,9.686-6.354l0.035-0.928l-9.885,6.553
			C18.318,31.184,18.094,31.309,18.094,31.598z"/>
		<path d="M18.019,30.664c0.131,0.152,0.241,0.161,0.348,0.111c0.108-0.051,9.233-6.287,9.233-6.287L27.607,24l-9.438,6.35
			C18.169,30.35,17.888,30.511,18.019,30.664z"/>
		<path d="M18.305,29.88l9.298-6.276l-0.008-0.478l-9.398,6.358c0,0-0.244,0.162-0.125,0.324
			C18.188,29.97,18.305,29.88,18.305,29.88z"/>
		<polygon points="27.617,21.691 18.462,27.766 4.54,16.245 3.981,16.573 18.279,28.917 28.07,22.083 		"/>
		<path d="M3.604,14.478l14.984,12.443c0,0-0.431-0.882-0.431-1.53s0.431-1.342,0.431-1.342L4.052,11.915
			c0,0-0.769,0.28-0.769,1.315S3.604,14.478,3.604,14.478z"/>
		<path d="M18.656,26.467c0,0.289,0.271,0.34,0.391,0.316c0.121-0.024,9.686-6.354,9.686-6.354l0.036-0.93l-9.886,6.553
			C18.881,26.053,18.656,26.18,18.656,26.467z"/>
		<path d="M18.582,25.534c0.13,0.153,0.24,0.161,0.348,0.112c0.107-0.052,9.232-6.287,9.232-6.287l0.007-0.489l-9.437,6.348
			C18.732,25.218,18.451,25.381,18.582,25.534z"/>
		<path d="M18.867,24.75l9.299-6.277l-0.008-0.475l-9.398,6.357c0,0-0.243,0.162-0.126,0.324C18.75,24.84,18.867,24.75,18.867,24.75
			z"/>
		<polygon points="28.178,16.561 19.025,22.634 5.103,11.115 4.543,11.443 18.84,23.788 28.632,16.954 		"/>
		<path d="M4.167,9.222L19.15,21.665c0,0-0.429-0.883-0.429-1.531c0-0.649,0.429-1.342,0.429-1.342L4.614,6.658
			c0,0-0.769,0.28-0.769,1.315C3.845,9.009,4.167,9.222,4.167,9.222z"/>
		<path d="M19.445,20.797c0,0-0.227,0.125-0.227,0.414s0.27,0.34,0.391,0.314c0.121-0.023,9.686-6.353,9.686-6.353l0.035-0.929
			L19.445,20.797z"/>
		<path d="M19.144,20.277c0.131,0.154,0.241,0.162,0.35,0.113c0.107-0.051,9.232-6.288,9.232-6.288l0.006-0.49l-9.437,6.349
			C19.295,19.962,19.013,20.125,19.144,20.277z"/>
		<path d="M19.429,19.495l9.298-6.278L28.72,12.74l-9.396,6.357c0,0-0.244,0.161-0.127,0.324
			C19.312,19.584,19.429,19.495,19.429,19.495z"/>
		<path d="M29.195,11.698L15.673,0L5.106,6.187l14.297,12.344L29.195,11.698z M9.92,7.52l7.044-4.185l2.67,2.282l-6.96,4.363
			L9.92,7.52z M15.259,9.518L14.97,9.25l3.118-2.039l0.228,0.287L15.259,9.518z"/>
	</g>
</g>
<g>
</g>
<g>
</g>
<g>
</g>
<g>
</g>
<g>
</g>
<g>
</g>
<g>
</g>
<g>
</g>
<g>
</g>
<g>
</g>
<g>
</g>
<g>
</g>
<g>
</g>
<g>
</g>
<g>
</g>
</svg>
