<?xml version="1.0" encoding="iso-8859-1"?>
<!-- Generator: Adobe Illustrator 19.0.0, SVG Export Plug-In . SVG Version: 6.00 Build 0)  -->
<svg version="1.1" id="Capa_1" xmlns="http://www.w3.org/2000/svg" xmlns:xlink="http://www.w3.org/1999/xlink" x="0px" y="0px"
	 viewBox="0 0 512 512" style="enable-background:new 0 0 512 512;" xml:space="preserve">
<g>
	<g>
		<g>
			<polygon points="411.997,58.094 467.859,113.955 496.143,85.671 411.997,1.525 327.144,86.378 355.429,114.662 			"/>
			<polygon points="392.126,176.445 392.126,318 432.126,318 432.126,176.702 467.859,212.435 496.143,184.151 411.997,100.005 
				327.144,184.858 355.429,213.142 			"/>
			<path d="M392,357v39h-83v38h-43V327.964l-68-30V199c0-33.084-26.916-60-60-60H92v0.1c-18.792,1.06-35.995,10.837-46.516,26.618
				L0,233.944V319h40v-72.944l32-48.001V512h40V179h26c11.028,0,20,8.972,20,20v125.036l68,30V472h-73v40h113v-38h83v-38h83v-39h80
				v-40H392z"/>
			<path d="M141,120c33.084,0,60-26.916,60-60S174.084,0,141,0S81,26.916,81,60S107.916,120,141,120z M141,40
				c11.028,0,20,8.972,20,20s-8.972,20-20,20s-20-8.972-20-20S129.972,40,141,40z"/>
		</g>
	</g>
</g>
<g>
</g>
<g>
</g>
<g>
</g>
<g>
</g>
<g>
</g>
<g>
</g>
<g>
</g>
<g>
</g>
<g>
</g>
<g>
</g>
<g>
</g>
<g>
</g>
<g>
</g>
<g>
</g>
<g>
</g>
</svg>
